<?xml version="1.0" encoding="UTF-8"?>
<svg id="b" data-name="Layer 2" xmlns="http://www.w3.org/2000/svg" viewBox="0 0 11.47 8.56">
  <g id="c" data-name="Layer 1">
    <path fill="#fff" className="d" d="m11.07,6.37c-.06-1.03-.38-1.77-1.5-1.93v-.02c1.1-.23,1.67-1.09,1.67-2.18,0-1.55-1.2-2.23-2.6-2.23H0v.7h2.99v7.87h.82V.7h.91v7.87h.82v-3.8h1.25c1.54-.06,1.65,1.27,1.71,2.47.04.36.04,1.01.23,1.33h.9c-.36-.42-.36-1.61-.4-2.19-.04-.7-.21-1.27-.66-1.61h.06c1.54-.06,1.65,1.27,1.71,2.47.04.36.04,1.01.23,1.33h.9c-.36-.42-.36-1.61-.4-2.19Zm-4.74-2.3h-.8V.7h1.2c1.24,0,1.85.65,1.85,1.7s-.85,1.67-1.85,1.67h-.41Zm2.25,0h-.04c.57-.4.86-1.06.86-1.83,0-.66-.23-1.16-.59-1.52,1.08.08,1.62.7,1.62,1.69,0,1.04-.85,1.67-1.85,1.67Z"/>
  </g>
</svg>